<svg width="406" height="144" viewBox="0 0 406 144" fill="none" xmlns="http://www.w3.org/2000/svg">
<path d="M9 114H99V78H9V114ZM9 66H99V54H9V66ZM9 30V42H99V30H9Z" fill="#EDF2F8"/>
<path d="M159.72 107.76C158.76 108.4 156.88 109.24 154.08 110.28C151.36 111.24 148.16 111.72 144.48 111.72C140.72 111.72 137.16 111.12 133.8 109.92C130.52 108.72 127.64 106.88 125.16 104.4C122.68 101.84 120.72 98.68 119.28 94.92C117.84 91.16 117.12 86.68 117.12 81.48C117.12 76.92 117.8 72.76 119.16 69C120.52 65.16 122.48 61.88 125.04 59.16C127.68 56.36 130.88 54.2 134.64 52.68C138.4 51.08 142.64 50.28 147.36 50.28C152.56 50.28 157.08 50.68 160.92 51.48C164.84 52.2 168.12 52.88 170.76 53.52V109.2C170.76 118.8 168.28 125.76 163.32 130.08C158.36 134.4 150.84 136.56 140.76 136.56C136.84 136.56 133.12 136.24 129.6 135.6C126.16 134.96 123.16 134.2 120.6 133.32L122.64 123.6C124.88 124.48 127.6 125.24 130.8 125.88C134.08 126.6 137.48 126.96 141 126.96C147.64 126.96 152.4 125.64 155.28 123C158.24 120.36 159.72 116.16 159.72 110.4V107.76ZM159.6 61.44C158.48 61.12 156.96 60.84 155.04 60.6C153.2 60.28 150.68 60.12 147.48 60.12C141.48 60.12 136.84 62.08 133.56 66C130.36 69.92 128.76 75.12 128.76 81.6C128.76 85.2 129.2 88.28 130.08 90.84C131.04 93.4 132.28 95.52 133.8 97.2C135.4 98.88 137.2 100.12 139.2 100.92C141.28 101.72 143.4 102.12 145.56 102.12C148.52 102.12 151.24 101.72 153.72 100.92C156.2 100.04 158.16 99.04 159.6 97.92V61.44ZM213.015 50.28C213.975 50.28 215.055 50.36 216.255 50.52C217.535 50.6 218.775 50.76 219.975 51C221.175 51.16 222.255 51.36 223.215 51.6C224.255 51.76 225.015 51.92 225.495 52.08L223.575 61.8C222.695 61.48 221.215 61.12 219.135 60.72C217.135 60.24 214.535 60 211.335 60C209.255 60 207.175 60.24 205.095 60.72C203.095 61.12 201.775 61.4 201.135 61.56V114H189.975V54.24C192.615 53.28 195.895 52.4 199.815 51.6C203.735 50.72 208.135 50.28 213.015 50.28ZM247.424 114H236.264V51.6H247.424V114ZM241.784 40.32C239.784 40.32 238.064 39.68 236.624 38.4C235.264 37.04 234.584 35.24 234.584 33C234.584 30.76 235.264 29 236.624 27.72C238.064 26.36 239.784 25.68 241.784 25.68C243.784 25.68 245.464 26.36 246.824 27.72C248.264 29 248.984 30.76 248.984 33C248.984 35.24 248.264 37.04 246.824 38.4C245.464 39.68 243.784 40.32 241.784 40.32ZM266.616 53.4C269.176 52.76 272.576 52.08 276.816 51.36C281.056 50.64 285.936 50.28 291.456 50.28C296.416 50.28 300.536 51 303.816 52.44C307.096 53.8 309.696 55.76 311.616 58.32C313.616 60.8 315.016 63.8 315.816 67.32C316.616 70.84 317.016 74.72 317.016 78.96V114H305.856V81.36C305.856 77.52 305.576 74.24 305.016 71.52C304.536 68.8 303.696 66.6 302.496 64.92C301.296 63.24 299.696 62.04 297.696 61.32C295.696 60.52 293.216 60.12 290.256 60.12C289.056 60.12 287.816 60.16 286.536 60.24C285.256 60.32 284.016 60.44 282.816 60.6C281.696 60.68 280.656 60.8 279.696 60.96C278.816 61.12 278.176 61.24 277.776 61.32V114H266.616V53.4ZM375.842 64.8C374.482 63.68 372.522 62.6 369.962 61.56C367.402 60.52 364.602 60 361.562 60C358.362 60 355.602 60.6 353.282 61.8C351.042 62.92 349.202 64.52 347.762 66.6C346.322 68.6 345.282 71 344.642 73.8C344.002 76.6 343.682 79.6 343.682 82.8C343.682 90.08 345.482 95.72 349.082 99.72C352.682 103.64 357.482 105.6 363.482 105.6C366.522 105.6 369.042 105.48 371.042 105.24C373.122 104.92 374.722 104.6 375.842 104.28V64.8ZM375.842 22.8L387.002 20.88V112.2C384.442 112.92 381.162 113.64 377.162 114.36C373.162 115.08 368.562 115.44 363.362 115.44C358.562 115.44 354.242 114.68 350.402 113.16C346.562 111.64 343.282 109.48 340.562 106.68C337.842 103.88 335.722 100.48 334.202 96.48C332.762 92.4 332.042 87.84 332.042 82.8C332.042 78 332.642 73.6 333.842 69.6C335.122 65.6 336.962 62.16 339.362 59.28C341.762 56.4 344.682 54.16 348.122 52.56C351.642 50.96 355.642 50.16 360.122 50.16C363.722 50.16 366.882 50.64 369.602 51.6C372.402 52.56 374.482 53.48 375.842 54.36V22.8Z" fill="white"/>
<rect x="9" y="30" width="90" height="12" fill="#007FFF"/>
<rect x="9" y="54" width="90" height="12" fill="#3C82C8"/>
<rect x="9" y="78" width="90" height="36" fill="#254F79"/>
</svg>
